#N canvas 662 87 1360 401 10;
#X obj 67 243 speaker -1.4 2.4 \$1;
#X obj 213 243 speaker 1.4 2.4 \$1;
#X obj 353 243 speaker -2.6 0.7 \$1;
#X obj 504 243 speaker 2.6 0.7 \$1;
#X obj 645 242 speaker -2.6 -0.7 \$1;
#X obj 798 242 speaker 2.6 -0.7 \$1;
#X obj 949 242 speaker -1.4 -2.4 \$1;
#X obj 1108 241 speaker 1.4 -2.4 \$1;
#X obj 52 267 *~;
#X obj 198 268 *~;
#X obj 338 268 *~;
#X obj 489 269 *~;
#X obj 630 266 *~;
#X obj 783 267 *~;
#X obj 934 267 *~;
#X obj 1093 268 *~;
#X obj 52 290 throw~ \$2-out1;
#X obj 198 291 throw~ \$2-out2;
#X obj 338 291 throw~ \$2-out3;
#X obj 489 291 throw~ \$2-out4;
#X obj 630 288 throw~ \$2-out5;
#X obj 783 290 throw~ \$2-out6;
#X obj 935 290 throw~ \$2-out7;
#X obj 1094 291 throw~ \$2-out8;
#X obj 61 45 inlet~;
#X connect 0 0 8 1;
#X connect 1 0 9 1;
#X connect 2 0 10 1;
#X connect 3 0 11 1;
#X connect 4 0 12 1;
#X connect 5 0 13 1;
#X connect 6 0 14 1;
#X connect 7 0 15 1;
#X connect 8 0 16 0;
#X connect 9 0 17 0;
#X connect 10 0 18 0;
#X connect 11 0 19 0;
#X connect 12 0 20 0;
#X connect 13 0 21 0;
#X connect 14 0 22 0;
#X connect 15 0 23 0;
#X connect 24 0 8 0;
#X connect 24 0 9 0;
#X connect 24 0 10 0;
#X connect 24 0 11 0;
#X connect 24 0 12 0;
#X connect 24 0 13 0;
#X connect 24 0 14 0;
#X connect 24 0 15 0;
