#N canvas 692 855 468 479 10;
#X obj 46 185 inlet;
#X obj 46 208 unpack 0 0;
#X obj 46 232 s \$1-x;
#X obj 103 232 s \$1-y;
#X obj 23 133 gemhead;
#X obj 23 270 translateXYZ;
#X obj 23 297 circle 0.05;
#X obj 122 66 random 5;
#X obj 122 89 expr ($f1 / 10) + 0.3;
#X floatatom 122 110 5 0 0 0 - - -;
#X obj 122 43 loadbang;
#X msg 122 134 \$1 0.8 0.8;
#X obj 23 157 color 0.4 0.8 0.8;
#X connect 0 0 1 0;
#X connect 1 0 2 0;
#X connect 1 0 5 1;
#X connect 1 1 3 0;
#X connect 1 1 5 2;
#X connect 4 0 12 0;
#X connect 5 0 6 0;
#X connect 7 0 8 0;
#X connect 8 0 9 0;
#X connect 9 0 11 0;
#X connect 10 0 7 0;
#X connect 11 0 12 1;
#X connect 12 0 5 0;
