#N canvas 304 237 1856 867 10;
#X declare -path boids;
#X obj 826 25 loadbang;
#X obj 808 53 b;
#X obj 809 25 bng 15 250 50 0 empty empty empty 0 -6 0 8 -262144 -1
-1;
#X msg 807 362 prefdist 1.5;
#X msg 807 338 accel 2.5;
#X msg 807 314 inertia 4.5;
#X msg 807 290 speed 3;
#X msg 807 267 edgedist 3;
#X msg 807 243 repel 3.5;
#X msg 807 220 avoid 3.5;
#X msg 807 197 match 0.3;
#X msg 807 127 minspeed 1.2;
#X msg 807 104 maxspeed 1.5;
#X msg 807 82 neighbors 4;
#X obj 807 408 s \$1-boidsettings;
#X obj 1320 164 r \$1-boidsettings;
#X obj 1320 210 route 0 1 2 3 4 5 6 7 8 9 10 11 12 13 14 15 16 17 18
19;
#X obj 1320 140 metro 20;
#X obj 1320 120 tgl 15 0 empty empty empty 17 7 0 10 -262144 -1 -1
0 1;
#X obj 201 437 gemhead;
#X obj 201 533 translateXYZ;
#X floatatom 224 488 5 0 0 0 - - -;
#X floatatom 247 511 5 0 0 0 - - -;
#X obj 1053 199 gemwin;
#X msg 1184 124 destroy \, reset;
#X msg 807 385 flyrect 4 4 -4 -4;
#X obj 110 111 grid grid1 300 -4 4 300 -4 4 1 0.1 0.1 10 10 160 290
;
#X floatatom 104 439 5 0 0 0 - - -;
#X floatatom 397 438 5 0 0 0 - - -;
#X obj 1320 188 boids2d 20;
#X obj 76 -122 declare -path boids;
#X obj 1320 235 boid 0;
#X msg 206 681 attractpt \$1 \$2;
#X obj 201 603 circle 0.1;
#X obj 206 656 pack f f;
#X msg 216 580 draw line;
#X obj 104 43 loadbang;
#X obj 216 557 loadbang;
#X obj 206 704 s \$1-boidsettings;
#X obj 1336 257 boid 1;
#X obj 1352 281 boid 2;
#X obj 1369 304 boid 3;
#X obj 1385 234 boid 4;
#X obj 1401 256 boid 5;
#X obj 1418 280 boid 6;
#X obj 1434 303 boid 7;
#X obj 1450 235 boid 8;
#X obj 1467 257 boid 9;
#X obj 1483 281 boid 10;
#X obj 1499 304 boid 11;
#X obj 1516 234 boid 12;
#X obj 1532 256 boid 13;
#X obj 1548 280 boid 14;
#X obj 1565 303 boid 15;
#X obj 1581 233 boid 16;
#X obj 1597 255 boid 17;
#X obj 1614 279 boid 18;
#X obj 1630 302 boid 19;
#X obj 201 461 color 0.6 0.6 0.6;
#X msg 1046 155 create \, 1 \, color 0.25 0.25 0.25;
#X msg 104 65 color 85 85 85;
#X msg 807 150 center 1;
#X msg 807 173 attract 2;
#X obj 199 164 cnv 15 15 15 empty \$0-speaker1pos 1 4 7 0 14 -228856
-66577 0;
#X obj 304 164 cnv 15 15 15 empty \$0-speaker2pos 2 4 7 0 14 -228856
-66577 0;
#X obj 154 225 cnv 15 15 15 empty \$0-speaker3pos 3 4 7 0 14 -228856
-66577 0;
#X obj 349 225 cnv 15 15 15 empty \$0-speaker4pos 4 4 7 0 14 -228856
-66577 0;
#X obj 154 284 cnv 15 15 15 empty \$0-speaker5pos 5 4 7 0 14 -228856
-66577 0;
#X obj 349 284 cnv 15 15 15 empty \$0-speaker6pos 6 4 7 0 14 -228856
-66577 0;
#X obj 199 345 cnv 15 15 15 empty \$0-speaker7pos 7 4 7 0 14 -228856
-66577 0;
#X obj 304 345 cnv 15 15 15 empty \$0-speaker8pos 8 4 7 0 14 -228856
-66577 0;
#X obj 1026 469 outlet~;
#X obj 72 -60 boidpan 0 \$1;
#X obj 1026 444 catch~ \$1-out1;
#X obj 1119 469 outlet~;
#X obj 1213 469 outlet~;
#X obj 1306 469 outlet~;
#X obj 1399 469 outlet~;
#X obj 1492 469 outlet~;
#X obj 1586 469 outlet~;
#X obj 1679 469 outlet~;
#X obj 1119 444 catch~ \$1-out2;
#X obj 1213 444 catch~ \$1-out3;
#X obj 1306 444 catch~ \$1-out4;
#X obj 1399 444 catch~ \$1-out5;
#X obj 1492 444 catch~ \$1-out6;
#X obj 1586 444 catch~ \$1-out7;
#X obj 1679 444 catch~ \$1-out8;
#X obj 72 -82 inlet~;
#X obj 155 -82 inlet~;
#X obj 237 -82 inlet~;
#X obj 320 -82 inlet~;
#X obj 404 -83 inlet~;
#X obj 487 -83 inlet~;
#X obj 569 -83 inlet~;
#X obj 652 -83 inlet~;
#X obj 739 -86 inlet~;
#X obj 822 -86 inlet~;
#X obj 904 -86 inlet~;
#X obj 991 -86 inlet~;
#X obj 1078 -87 inlet~;
#X obj 1165 -87 inlet~;
#X obj 1252 -87 inlet~;
#X obj 1340 -87 inlet~;
#X obj 1428 -87 inlet~;
#X obj 1516 -87 inlet~;
#X obj 1602 -87 inlet~;
#X obj 1688 -87 inlet~;
#X obj 155 -60 boidpan 1 \$1;
#X obj 237 -60 boidpan 2 \$1;
#X obj 320 -60 boidpan 3 \$1;
#X obj 404 -61 boidpan 4 \$1;
#X obj 487 -61 boidpan 5 \$1;
#X obj 569 -61 boidpan 6 \$1;
#X obj 652 -61 boidpan 7 \$1;
#X obj 739 -64 boidpan 8 \$1;
#X obj 822 -64 boidpan 9 \$1;
#X obj 904 -64 boidpan 10 \$1;
#X obj 991 -64 boidpan 11 \$1;
#X obj 1078 -65 boidpan 12 \$1;
#X obj 1165 -65 boidpan 13 \$1;
#X obj 1252 -65 boidpan 14 \$1;
#X obj 1340 -65 boidpan 15 \$1;
#X obj 1428 -65 boidpan 16 \$1;
#X obj 1516 -65 boidpan 17 \$1;
#X obj 1602 -65 boidpan 18 \$1;
#X obj 1688 -65 boidpan 19 \$1;
#X obj 611 163 tgl 15 0 \$1-boidsonoff \$1-setboids Flocking_On_Off:
-100 7 0 10 -262144 -1 -1 0 1;
#X obj 611 130 tgl 15 0 \$1-gemonoff \$1-gemload Gem: -25 7 0 10 -262144
-1 -1 0 1;
#X obj 767 453 del 10;
#X msg 767 475 1;
#X obj 767 498 s \$1-gemload;
#X obj 858 490 s \$1-setboids;
#X msg 857 463 1;
#X obj 1061 56 sel 1 0;
#X obj 1061 32 r \$1-gemonoff;
#X obj 1320 95 r \$1-boidsonoff;
#X connect 0 0 1 0;
#X connect 1 0 13 0;
#X connect 1 0 12 0;
#X connect 1 0 11 0;
#X connect 1 0 61 0;
#X connect 1 0 62 0;
#X connect 1 0 10 0;
#X connect 1 0 9 0;
#X connect 1 0 8 0;
#X connect 1 0 6 0;
#X connect 1 0 5 0;
#X connect 1 0 4 0;
#X connect 1 0 3 0;
#X connect 1 0 7 0;
#X connect 1 0 25 0;
#X connect 1 0 129 0;
#X connect 1 0 133 0;
#X connect 2 0 1 0;
#X connect 3 0 14 0;
#X connect 4 0 14 0;
#X connect 5 0 14 0;
#X connect 6 0 14 0;
#X connect 7 0 14 0;
#X connect 8 0 14 0;
#X connect 9 0 14 0;
#X connect 10 0 14 0;
#X connect 11 0 14 0;
#X connect 12 0 14 0;
#X connect 13 0 14 0;
#X connect 15 0 29 0;
#X connect 16 0 31 0;
#X connect 16 1 39 0;
#X connect 16 2 40 0;
#X connect 16 3 41 0;
#X connect 16 4 42 0;
#X connect 16 5 43 0;
#X connect 16 6 44 0;
#X connect 16 7 45 0;
#X connect 16 8 46 0;
#X connect 16 9 47 0;
#X connect 16 10 48 0;
#X connect 16 11 49 0;
#X connect 16 12 50 0;
#X connect 16 13 51 0;
#X connect 16 14 52 0;
#X connect 16 15 53 0;
#X connect 16 16 54 0;
#X connect 16 17 55 0;
#X connect 16 18 56 0;
#X connect 16 19 57 0;
#X connect 17 0 29 0;
#X connect 18 0 17 0;
#X connect 19 0 58 0;
#X connect 20 0 33 0;
#X connect 21 0 20 1;
#X connect 22 0 20 2;
#X connect 24 0 23 0;
#X connect 25 0 14 0;
#X connect 26 0 27 0;
#X connect 26 0 21 0;
#X connect 26 1 28 0;
#X connect 26 1 22 0;
#X connect 27 0 34 0;
#X connect 28 0 34 1;
#X connect 29 0 16 0;
#X connect 32 0 38 0;
#X connect 34 0 32 0;
#X connect 35 0 33 0;
#X connect 36 0 60 0;
#X connect 37 0 35 0;
#X connect 58 0 20 0;
#X connect 59 0 23 0;
#X connect 60 0 26 0;
#X connect 61 0 14 0;
#X connect 62 0 14 0;
#X connect 73 0 71 0;
#X connect 81 0 74 0;
#X connect 82 0 75 0;
#X connect 83 0 76 0;
#X connect 84 0 77 0;
#X connect 85 0 78 0;
#X connect 86 0 79 0;
#X connect 87 0 80 0;
#X connect 88 0 72 0;
#X connect 89 0 108 0;
#X connect 90 0 109 0;
#X connect 91 0 110 0;
#X connect 92 0 111 0;
#X connect 93 0 112 0;
#X connect 94 0 113 0;
#X connect 95 0 114 0;
#X connect 96 0 115 0;
#X connect 97 0 116 0;
#X connect 98 0 117 0;
#X connect 99 0 118 0;
#X connect 100 0 119 0;
#X connect 101 0 120 0;
#X connect 102 0 121 0;
#X connect 103 0 122 0;
#X connect 104 0 123 0;
#X connect 105 0 124 0;
#X connect 106 0 125 0;
#X connect 107 0 126 0;
#X connect 129 0 130 0;
#X connect 130 0 131 0;
#X connect 133 0 132 0;
#X connect 134 0 59 0;
#X connect 134 1 24 0;
#X connect 135 0 134 0;
#X connect 136 0 18 0;
#X coords 0 -1 1 1 600 320 1 100 100;
