#N canvas 116 239 353 891 10;
#X obj 218 10 dumpOSC 8000;
#X obj 218 143 route /1/maxspeed;
#X obj 218 165 s \$1-setmaxspeed;
#X obj 218 122 spigot;
#X obj 251 34 loadbang;
#X msg 251 77 0;
#X msg 287 77 1;
#X floatatom 251 101 5 0 0 0 - - -;
#X obj 218 188 route /1/gain;
#X obj 218 211 s \$1-setoutputgain;
#X obj 218 234 route /1/minspeed;
#X obj 218 279 route /1/center;
#X obj 218 325 route /1/attract;
#X obj 218 370 route /1/match;
#X obj 218 414 route /1/avoid;
#X obj 218 459 route /1/repel;
#X obj 218 505 route /1/edgedist;
#X obj 218 551 route /1/speed;
#X obj 218 598 route /1/inertia;
#X obj 218 645 route /1/accel;
#X obj 218 692 route /1/prefdist;
#X obj 218 256 s \$1-setminspeed;
#X obj 218 302 s \$1-setcenter;
#X obj 218 347 s \$1-setattract;
#X obj 218 392 s \$1-setmatch;
#X obj 218 436 s \$1-setavoid;
#X obj 218 482 s \$1-setrepel;
#X obj 218 528 s \$1-setedgedist;
#X obj 218 575 s \$1-setspeed;
#X obj 218 621 s \$1-setinertia;
#X obj 218 667 s \$1-setaccel;
#X obj 218 714 s \$1-setprefdist;
#X obj 218 785 route /1/boidsonoff;
#X obj 218 808 s \$1-setboids;
#X obj 218 761 s \$1-gemload;
#X obj 218 738 route /1/gemonoff;
#X obj 218 832 route /1/xy1;
#X obj 218 856 s \$1-xy;
#X obj 14 536 sendOSC;
#X obj 14 10 loadbang;
#X obj 287 55 del 100;
#X msg 14 156 send /1/gain 0.5;
#X msg 14 180 send /1/maxspeed 1.5;
#X msg 14 206 send /1/minspeed 1.2;
#X msg 14 231 send /1/center 1;
#X msg 14 256 send /1/attract 2;
#X msg 14 282 send /1/match 0.3;
#X msg 14 308 send /1/avoid 3.5;
#X msg 14 333 send /1/repel 3.5;
#X msg 14 358 send /1/edgedist 3;
#X msg 14 383 send /1/speed 3;
#X msg 14 409 send /1/inertia 4.5;
#X msg 14 434 send /1/accel 2.5;
#X msg 14 459 send /1/prefdist 1.5;
#X msg 14 484 send /1/gemonoff 1;
#X msg 14 511 send /1/boidsonoff 1;
#X text 75 14 change to your ip;
#X msg 14 33 connect 10.228.202.254 9000;
#X obj 41 101 del 10;
#X obj 41 80 t b;
#X connect 0 0 3 0;
#X connect 1 0 2 0;
#X connect 3 0 1 0;
#X connect 3 0 11 0;
#X connect 3 0 10 0;
#X connect 3 0 12 0;
#X connect 3 0 13 0;
#X connect 3 0 14 0;
#X connect 3 0 15 0;
#X connect 3 0 16 0;
#X connect 3 0 17 0;
#X connect 3 0 18 0;
#X connect 3 0 8 0;
#X connect 3 0 19 0;
#X connect 3 0 20 0;
#X connect 3 0 32 0;
#X connect 3 0 35 0;
#X connect 3 0 36 0;
#X connect 4 0 5 0;
#X connect 4 0 40 0;
#X connect 5 0 7 0;
#X connect 6 0 7 0;
#X connect 7 0 3 1;
#X connect 8 0 9 0;
#X connect 10 0 21 0;
#X connect 11 0 22 0;
#X connect 12 0 23 0;
#X connect 13 0 24 0;
#X connect 14 0 25 0;
#X connect 15 0 26 0;
#X connect 16 0 27 0;
#X connect 17 0 28 0;
#X connect 18 0 29 0;
#X connect 19 0 30 0;
#X connect 20 0 31 0;
#X connect 32 0 33 0;
#X connect 35 0 34 0;
#X connect 36 0 37 0;
#X connect 39 0 57 0;
#X connect 40 0 6 0;
#X connect 41 0 38 0;
#X connect 42 0 38 0;
#X connect 43 0 38 0;
#X connect 44 0 38 0;
#X connect 45 0 38 0;
#X connect 46 0 38 0;
#X connect 47 0 38 0;
#X connect 48 0 38 0;
#X connect 49 0 38 0;
#X connect 50 0 38 0;
#X connect 51 0 38 0;
#X connect 52 0 38 0;
#X connect 53 0 38 0;
#X connect 54 0 38 0;
#X connect 55 0 38 0;
#X connect 57 0 38 0;
#X connect 57 0 59 0;
#X connect 58 0 41 0;
#X connect 58 0 42 0;
#X connect 58 0 43 0;
#X connect 58 0 44 0;
#X connect 58 0 45 0;
#X connect 58 0 46 0;
#X connect 58 0 47 0;
#X connect 58 0 48 0;
#X connect 58 0 49 0;
#X connect 58 0 50 0;
#X connect 58 0 51 0;
#X connect 58 0 52 0;
#X connect 58 0 53 0;
#X connect 58 0 54 0;
#X connect 58 0 55 0;
#X connect 59 0 58 0;
