#N canvas 135 22 748 1392 10;
#X obj 406 15 dumpOSC 8000;
#X obj 406 37 route /1/maxspeed;
#X obj 406 59 s \$1-setmaxspeed;
#X obj 406 82 route /1/gain;
#X obj 406 105 s \$1-setoutputgain;
#X obj 406 128 route /1/minspeed;
#X obj 406 173 route /1/center;
#X obj 406 219 route /1/attract;
#X obj 406 264 route /1/match;
#X obj 406 308 route /1/avoid;
#X obj 406 353 route /1/repel;
#X obj 406 399 route /1/edgedist;
#X obj 406 445 route /1/speed;
#X obj 406 492 route /1/inertia;
#X obj 406 539 route /1/accel;
#X obj 406 586 route /1/prefdist;
#X obj 406 150 s \$1-setminspeed;
#X obj 406 196 s \$1-setcenter;
#X obj 406 241 s \$1-setattract;
#X obj 406 286 s \$1-setmatch;
#X obj 406 330 s \$1-setavoid;
#X obj 406 376 s \$1-setrepel;
#X obj 406 422 s \$1-setedgedist;
#X obj 406 469 s \$1-setspeed;
#X obj 406 515 s \$1-setinertia;
#X obj 406 561 s \$1-setaccel;
#X obj 406 608 s \$1-setprefdist;
#X obj 406 679 route /1/boidsonoff;
#X obj 406 702 s \$1-setboids;
#X obj 406 655 s \$1-gemload;
#X obj 406 632 route /1/gemonoff;
#X obj 406 726 route /1/xy1;
#X obj 406 750 s \$1-xy;
#X obj 230 153 r \$1-maxspeed;
#X msg 230 131 send /1/gain \$1;
#X msg 230 198 send /1/maxspeed \$1;
#X msg 230 262 send /1/minspeed \$1;
#X msg 230 709 send /1/center \$1;
#X msg 230 325 send /1/attract \$1;
#X msg 230 517 send /1/match \$1;
#X msg 230 644 send /1/avoid \$1;
#X msg 230 774 send /1/repel \$1;
#X msg 230 389 send /1/edgedist \$1;
#X msg 230 581 send /1/speed \$1;
#X msg 230 837 send /1/inertia \$1;
#X msg 230 453 send /1/accel \$1;
#X msg 230 903 send /1/prefdist \$1;
#X msg 230 971 send /1/gemonoff \$1;
#X msg 230 1039 send /1/boidsonoff \$1;
#X obj 230 88 r \$1-outputgain;
#X obj 230 221 r \$1-minspeed;
#X obj 230 668 r \$1-center;
#X obj 230 284 r \$1-attract;
#X obj 230 476 r \$1-match;
#X floatatom 230 110 5 0 0 0 - - -;
#X floatatom 230 175 5 0 0 0 - - -;
#X floatatom 230 243 5 0 0 0 - - -;
#X floatatom 230 689 5 0 0 0 - - -;
#X floatatom 230 305 5 0 0 0 - - -;
#X floatatom 230 497 5 0 0 0 - - -;
#X floatatom 230 624 5 0 0 0 - - -;
#X floatatom 230 754 5 0 0 0 - - -;
#X floatatom 230 369 5 0 0 0 - - -;
#X floatatom 230 561 5 0 0 0 - - -;
#X floatatom 230 818 5 0 0 0 - - -;
#X floatatom 230 433 5 0 0 0 - - -;
#X floatatom 230 884 5 0 0 0 - - -;
#X floatatom 230 951 5 0 0 0 - - -;
#X floatatom 230 1019 5 0 0 0 - - -;
#X obj 230 603 r \$1-avoid;
#X obj 230 733 r \$1-repel;
#X obj 230 349 r \$1-edgedist;
#X obj 230 541 r \$1-speed;
#X obj 230 798 r \$1-inertia;
#X obj 230 412 r \$1-accel;
#X obj 230 863 r \$1-prefdist;
#X obj 230 930 r \$1-gemonoff;
#X obj 230 998 r \$1-boidsonoff;
#X obj 230 1068 r \$1-gridout;
#X msg 230 1090 send /1/xy1 \$2 \$1;
#X obj 37 953 sendOSC;
#X floatatom 52 224 5 0 0 0 - - -;
#X floatatom 72 269 5 0 0 0 - - -;
#X floatatom 92 313 5 0 0 0 - - -;
#X floatatom 112 358 5 0 0 0 - - -;
#X obj 37 246 f;
#X obj 57 290 f;
#X obj 77 333 f;
#X obj 97 379 f;
#X obj 37 179 del 5;
#X msg 66 776 disconnect;
#X msg 37 471 connect \$1.\$2.\$3.\$4 \$5;
#X obj 37 448 pack f f f f f;
#X obj 118 422 f;
#X floatatom 133 402 5 0 0 0 - - -;
#X msg 55 698 connect localhost \$1;
#X obj 55 674 f;
#X floatatom 70 652 5 0 0 0 - - -;
#X floatatom 37 42 5 0 0 0 - - -;
#X obj 70 111 - 1;
#X floatatom 70 132 5 0 0 0 - - -;
#X obj 37 153 spigot;
#X obj 37 63 sel 1;
#X obj 66 753 sel 0;
#X floatatom 55 518 5 0 0 0 - - -;
#X floatatom 88 583 5 0 0 0 - - -;
#X obj 55 604 spigot;
#X obj 55 539 sel 1;
#X obj 230 1318 s \$1-sendosc;
#X obj 68 846 r \$1-sendosc;
#X obj 66 732 r \$1-connectosc;
#X obj 70 630 r \$1-port;
#X obj 88 561 r \$1-localhost;
#X obj 55 497 r \$1-connectosc;
#X obj 133 380 r \$1-port;
#X obj 112 335 r \$1-ip4;
#X obj 92 291 r \$1-ip3;
#X obj 72 247 r \$1-ip2;
#X obj 52 202 r \$1-ip1;
#X obj 70 89 r \$1-localhost;
#X obj 37 21 r \$1-connectosc;
#X obj 230 17 r \$1-connectosc;
#X obj 230 66 del 10;
#X obj 230 39 sel 1;
#X obj 102 869 r \$1-connectosc;
#X floatatom 101 891 5 0 0 0 - - -;
#X obj 68 912 spigot;
#X obj 406 771 route /1/rec;
#X obj 406 814 route /1/play;
#X obj 406 859 route /1/autospeed;
#X obj 406 881 s \$1-setautospeed;
#X obj 406 836 s \$1-setplay;
#X obj 406 792 s \$1-setrec;
#X obj 230 1116 r \$1-rec;
#X floatatom 230 1138 5 0 0 0 - - -;
#X msg 230 1160 send /1/rec \$1;
#X floatatom 230 1205 5 0 0 0 - - -;
#X floatatom 230 1272 5 0 0 0 - - -;
#X obj 230 1183 r \$1-play;
#X msg 230 1227 send /1/play \$1;
#X obj 230 1250 r \$1-autospeed;
#X msg 230 1294 send /1/autospeed \$1;
#X connect 0 0 1 0;
#X connect 0 0 3 0;
#X connect 0 0 5 0;
#X connect 0 0 6 0;
#X connect 0 0 7 0;
#X connect 0 0 8 0;
#X connect 0 0 9 0;
#X connect 0 0 10 0;
#X connect 0 0 11 0;
#X connect 0 0 12 0;
#X connect 0 0 13 0;
#X connect 0 0 14 0;
#X connect 0 0 15 0;
#X connect 0 0 30 0;
#X connect 0 0 27 0;
#X connect 0 0 31 0;
#X connect 0 0 127 0;
#X connect 0 0 128 0;
#X connect 0 0 129 0;
#X connect 1 0 2 0;
#X connect 3 0 4 0;
#X connect 5 0 16 0;
#X connect 6 0 17 0;
#X connect 7 0 18 0;
#X connect 8 0 19 0;
#X connect 9 0 20 0;
#X connect 10 0 21 0;
#X connect 11 0 22 0;
#X connect 12 0 23 0;
#X connect 13 0 24 0;
#X connect 14 0 25 0;
#X connect 15 0 26 0;
#X connect 27 0 28 0;
#X connect 30 0 29 0;
#X connect 31 0 32 0;
#X connect 33 0 55 0;
#X connect 34 0 108 0;
#X connect 35 0 108 0;
#X connect 36 0 108 0;
#X connect 37 0 108 0;
#X connect 38 0 108 0;
#X connect 39 0 108 0;
#X connect 40 0 108 0;
#X connect 41 0 108 0;
#X connect 42 0 108 0;
#X connect 43 0 108 0;
#X connect 44 0 108 0;
#X connect 45 0 108 0;
#X connect 46 0 108 0;
#X connect 47 0 108 0;
#X connect 48 0 108 0;
#X connect 49 0 54 0;
#X connect 50 0 56 0;
#X connect 51 0 57 0;
#X connect 52 0 58 0;
#X connect 53 0 59 0;
#X connect 54 0 34 0;
#X connect 55 0 35 0;
#X connect 56 0 36 0;
#X connect 57 0 37 0;
#X connect 58 0 38 0;
#X connect 59 0 39 0;
#X connect 60 0 40 0;
#X connect 61 0 41 0;
#X connect 62 0 42 0;
#X connect 63 0 43 0;
#X connect 64 0 44 0;
#X connect 65 0 45 0;
#X connect 66 0 46 0;
#X connect 67 0 47 0;
#X connect 68 0 48 0;
#X connect 69 0 60 0;
#X connect 70 0 61 0;
#X connect 71 0 62 0;
#X connect 72 0 63 0;
#X connect 73 0 64 0;
#X connect 74 0 65 0;
#X connect 75 0 66 0;
#X connect 76 0 67 0;
#X connect 77 0 68 0;
#X connect 78 0 79 0;
#X connect 79 0 108 0;
#X connect 81 0 85 1;
#X connect 82 0 86 1;
#X connect 83 0 87 1;
#X connect 84 0 88 1;
#X connect 85 0 92 0;
#X connect 86 0 92 1;
#X connect 87 0 92 2;
#X connect 88 0 92 3;
#X connect 89 0 85 0;
#X connect 90 0 80 0;
#X connect 91 0 80 0;
#X connect 92 0 91 0;
#X connect 93 0 92 4;
#X connect 94 0 93 1;
#X connect 95 0 80 0;
#X connect 96 0 95 0;
#X connect 97 0 96 1;
#X connect 98 0 102 0;
#X connect 99 0 100 0;
#X connect 100 0 101 1;
#X connect 101 0 89 0;
#X connect 101 0 86 0;
#X connect 101 0 87 0;
#X connect 101 0 88 0;
#X connect 101 0 93 0;
#X connect 102 0 101 0;
#X connect 103 0 90 0;
#X connect 104 0 107 0;
#X connect 105 0 106 1;
#X connect 106 0 96 0;
#X connect 107 0 106 0;
#X connect 109 0 126 0;
#X connect 110 0 103 0;
#X connect 111 0 97 0;
#X connect 112 0 105 0;
#X connect 113 0 104 0;
#X connect 114 0 94 0;
#X connect 115 0 84 0;
#X connect 116 0 83 0;
#X connect 117 0 82 0;
#X connect 118 0 81 0;
#X connect 119 0 99 0;
#X connect 120 0 98 0;
#X connect 121 0 123 0;
#X connect 122 0 54 0;
#X connect 122 0 55 0;
#X connect 122 0 56 0;
#X connect 122 0 57 0;
#X connect 122 0 58 0;
#X connect 122 0 59 0;
#X connect 122 0 60 0;
#X connect 122 0 61 0;
#X connect 122 0 62 0;
#X connect 122 0 63 0;
#X connect 122 0 64 0;
#X connect 122 0 65 0;
#X connect 122 0 66 0;
#X connect 122 0 67 0;
#X connect 122 0 68 0;
#X connect 122 0 134 0;
#X connect 122 0 136 0;
#X connect 122 0 137 0;
#X connect 123 0 122 0;
#X connect 124 0 125 0;
#X connect 125 0 126 1;
#X connect 126 0 80 0;
#X connect 127 0 132 0;
#X connect 128 0 131 0;
#X connect 129 0 130 0;
#X connect 133 0 134 0;
#X connect 134 0 135 0;
#X connect 135 0 108 0;
#X connect 136 0 139 0;
#X connect 137 0 141 0;
#X connect 138 0 136 0;
#X connect 139 0 108 0;
#X connect 140 0 137 0;
#X connect 141 0 108 0;
