#N canvas 489 510 1470 509 10;
#X obj 87 390 bp~ 100 2;
#X obj 34 391 lop~ 80;
#X obj 154 389 bp~ 200 2;
#X obj 220 388 bp~ 400 2;
#X obj 287 387 bp~ 600 2;
#X obj 413 386 bp~ 1000 2;
#X obj 547 386 bp~ 1500 2;
#X obj 613 385 bp~ 2500 2;
#X obj 680 384 bp~ 3000 2;
#X obj 746 384 bp~ 3500 2;
#X obj 812 383 bp~ 4000 2;
#X obj 879 382 bp~ 6000 2;
#X obj 946 381 bp~ 8000 2;
#X obj 1012 380 bp~ 10000 2;
#X obj 1085 379 bp~ 12500 2;
#X obj 1165 378 bp~ 15000 2;
#X obj 1243 376 bp~ 17500 2;
#X obj 1323 375 hip~ 18000;
#X obj 350 386 bp~ 800 2;
#X obj 485 385 bp~ 1200 2;
#X obj 34 414 outlet~;
#X obj 87 415 outlet~;
#X obj 154 415 outlet~;
#X obj 221 415 outlet~;
#X obj 287 415 outlet~;
#X obj 351 414 outlet~;
#X obj 413 414 outlet~;
#X obj 486 413 outlet~;
#X obj 548 412 outlet~;
#X obj 613 412 outlet~;
#X obj 680 409 outlet~;
#X obj 746 408 outlet~;
#X obj 814 407 outlet~;
#X obj 879 406 outlet~;
#X obj 946 406 outlet~;
#X obj 1013 404 outlet~;
#X obj 1085 403 outlet~;
#X obj 1166 402 outlet~;
#X obj 1244 400 outlet~;
#X obj 1323 398 outlet~;
#X obj 102 102 cnv 15 700 21 empty empty Signal_Splitter 4 10 0 14
-228856 -66577 0;
#X obj 35 317 *~;
#X obj 36 226 inlet~;
#X obj 50 295 vline~;
#X msg 50 272 \$1 20;
#X obj 50 249 r \$0-gain;
#X obj 665 106 hsl 128 15 0 1 0 0 \$0-gain \$0-setgain Gain: -37 8
0 10 -262144 -1 -1 990 1;
#X obj 135 227 loadbang;
#X obj 135 275 s \$0-setgain;
#X msg 135 251 0.2;
#X connect 0 0 21 0;
#X connect 1 0 20 0;
#X connect 2 0 22 0;
#X connect 3 0 23 0;
#X connect 4 0 24 0;
#X connect 5 0 26 0;
#X connect 6 0 28 0;
#X connect 7 0 29 0;
#X connect 8 0 30 0;
#X connect 9 0 31 0;
#X connect 10 0 32 0;
#X connect 11 0 33 0;
#X connect 12 0 34 0;
#X connect 13 0 35 0;
#X connect 14 0 36 0;
#X connect 15 0 37 0;
#X connect 16 0 38 0;
#X connect 17 0 39 0;
#X connect 18 0 25 0;
#X connect 19 0 27 0;
#X connect 41 0 0 0;
#X connect 41 0 1 0;
#X connect 41 0 2 0;
#X connect 41 0 3 0;
#X connect 41 0 4 0;
#X connect 41 0 18 0;
#X connect 41 0 5 0;
#X connect 41 0 19 0;
#X connect 41 0 6 0;
#X connect 41 0 7 0;
#X connect 41 0 8 0;
#X connect 41 0 9 0;
#X connect 41 0 10 0;
#X connect 41 0 11 0;
#X connect 41 0 12 0;
#X connect 41 0 13 0;
#X connect 41 0 14 0;
#X connect 41 0 15 0;
#X connect 41 0 16 0;
#X connect 41 0 17 0;
#X connect 42 0 41 0;
#X connect 43 0 41 1;
#X connect 44 0 43 0;
#X connect 45 0 44 0;
#X connect 47 0 49 0;
#X connect 49 0 48 0;
#X coords 0 -1 1 1 704 25 1 100 100;
