#N canvas 1432 464 633 840 10;
#X obj 60 273 *;
#X obj 195 271 *;
#X obj 195 294 t b;
#X floatatom 60 294 5 0 0 0 - - -;
#X obj 60 318 +;
#X obj 60 340 sqrt;
#X floatatom 60 363 5 0 0 0 - - -;
#X floatatom 60 225 5 0 0 0 - - -;
#X floatatom 195 224 5 0 0 0 - - -;
#X obj 113 224 t b;
#X obj 242 224 t b;
#X obj 60 247 -;
#X obj 195 244 -;
#X obj 60 410 * -1;
#X obj 60 432 + 0.5;
#X floatatom 99 477 5 0 0 0 - - -;
#X obj 60 455 moses 0;
#X obj 99 499 * 2;
#X floatatom 99 523 5 0 0 0 - - -;
#X obj 99 567 vline~;
#X msg 99 545 \$1 50;
#X obj 99 589 outlet~;
#X obj 60 118 \$1;
#X obj 60 96 loadbang;
#X obj 195 121 \$2;
#X obj 114 176 r \$3-x;
#X obj 243 181 r \$3-y;
#X obj 60 140 + 4;
#X obj 195 142 + 4;
#X obj 243 203 + 4;
#X obj 114 200 + 4;
#X obj 60 385 / 8;
#X connect 0 0 3 0;
#X connect 1 0 2 0;
#X connect 1 0 4 1;
#X connect 2 0 3 0;
#X connect 3 0 4 0;
#X connect 4 0 5 0;
#X connect 5 0 6 0;
#X connect 6 0 31 0;
#X connect 7 0 11 0;
#X connect 8 0 12 0;
#X connect 9 0 7 0;
#X connect 10 0 8 0;
#X connect 11 0 0 0;
#X connect 11 0 0 1;
#X connect 12 0 1 0;
#X connect 12 0 1 1;
#X connect 13 0 14 0;
#X connect 14 0 16 0;
#X connect 15 0 17 0;
#X connect 16 1 15 0;
#X connect 17 0 18 0;
#X connect 18 0 20 0;
#X connect 19 0 21 0;
#X connect 20 0 19 0;
#X connect 22 0 27 0;
#X connect 23 0 22 0;
#X connect 23 0 24 0;
#X connect 24 0 28 0;
#X connect 25 0 9 0;
#X connect 25 0 30 0;
#X connect 26 0 10 0;
#X connect 26 0 29 0;
#X connect 27 0 7 0;
#X connect 28 0 8 0;
#X connect 29 0 12 1;
#X connect 30 0 11 1;
#X connect 31 0 13 0;
