#N canvas 671 299 1296 684 10;
#X declare -path boids;
#X obj 171 225 jurassic_panner mypan;
#X obj 197 628 dac~;
#X obj 18 58 osc~ 440;
#X obj 80 59 osc~ 220;
#X obj 142 61 osc~ 442;
#X obj 204 62 osc~ 110;
#X obj 265 60 osc~ 450;
#X obj 327 61 osc~ 240;
#X obj 389 63 osc~ 436;
#X obj 451 64 osc~ 880;
#X obj 517 60 osc~ 460;
#X obj 579 61 osc~ 280;
#X obj 641 63 osc~ 490;
#X obj 703 64 osc~ 500;
#X obj 764 62 osc~ 455;
#X obj 826 63 osc~ 300;
#X obj 888 65 osc~ 510;
#X obj 950 66 osc~ 700;
#X obj 1012 64 osc~ 80;
#X obj 1074 65 osc~ 315;
#X obj 1136 67 osc~ 515;
#X obj 1198 68 osc~ 750;
#X obj 18 81 *~ 0.05;
#X obj 80 82 *~ 0.05;
#X obj 142 84 *~ 0.05;
#X obj 204 85 *~ 0.05;
#X obj 265 83 *~ 0.05;
#X obj 327 84 *~ 0.05;
#X obj 389 86 *~ 0.05;
#X obj 451 87 *~ 0.05;
#X obj 517 83 *~ 0.05;
#X obj 579 84 *~ 0.05;
#X obj 641 86 *~ 0.05;
#X obj 703 87 *~ 0.05;
#X obj 764 85 *~ 0.05;
#X obj 826 86 *~ 0.05;
#X obj 888 88 *~ 0.05;
#X obj 950 89 *~ 0.05;
#X obj 1012 87 *~ 0.05;
#X obj 1074 88 *~ 0.05;
#X obj 1136 90 *~ 0.05;
#X obj 1198 91 *~ 0.05;
#X connect 0 0 1 0;
#X connect 0 1 1 1;
#X connect 2 0 22 0;
#X connect 3 0 23 0;
#X connect 4 0 24 0;
#X connect 5 0 25 0;
#X connect 6 0 26 0;
#X connect 7 0 27 0;
#X connect 8 0 28 0;
#X connect 9 0 29 0;
#X connect 10 0 30 0;
#X connect 11 0 31 0;
#X connect 12 0 32 0;
#X connect 13 0 33 0;
#X connect 14 0 34 0;
#X connect 15 0 35 0;
#X connect 16 0 36 0;
#X connect 17 0 37 0;
#X connect 18 0 38 0;
#X connect 19 0 39 0;
#X connect 20 0 40 0;
#X connect 21 0 41 0;
#X connect 22 0 0 0;
#X connect 23 0 0 1;
#X connect 24 0 0 2;
#X connect 25 0 0 3;
#X connect 26 0 0 4;
#X connect 27 0 0 5;
#X connect 28 0 0 6;
#X connect 29 0 0 7;
#X connect 30 0 0 8;
#X connect 31 0 0 9;
#X connect 32 0 0 10;
#X connect 33 0 0 11;
#X connect 34 0 0 12;
#X connect 35 0 0 13;
#X connect 36 0 0 14;
#X connect 37 0 0 15;
#X connect 38 0 0 16;
#X connect 39 0 0 17;
#X connect 40 0 0 18;
#X connect 41 0 0 19;
