#N canvas 671 299 1296 684 10;
#X declare -path boids;
#X obj 171 235 jurassic_panner mypan;
#X obj 197 638 dac~;
#X obj 19 15 osc~ 440;
#X obj 81 16 osc~ 220;
#X obj 143 18 osc~ 442;
#X obj 205 19 osc~ 110;
#X obj 266 17 osc~ 450;
#X obj 328 18 osc~ 240;
#X obj 390 20 osc~ 436;
#X obj 452 21 osc~ 880;
#X obj 518 17 osc~ 460;
#X obj 580 18 osc~ 280;
#X obj 642 20 osc~ 490;
#X obj 704 21 osc~ 500;
#X obj 765 19 osc~ 455;
#X obj 827 20 osc~ 300;
#X obj 889 22 osc~ 510;
#X obj 951 23 osc~ 700;
#X obj 1013 21 osc~ 80;
#X obj 1075 22 osc~ 315;
#X obj 1137 24 osc~ 515;
#X obj 1199 25 osc~ 750;
#X obj 19 38 *~ 0.05;
#X obj 81 39 *~ 0.05;
#X obj 143 41 *~ 0.05;
#X obj 205 42 *~ 0.05;
#X obj 266 40 *~ 0.05;
#X obj 328 41 *~ 0.05;
#X obj 390 43 *~ 0.05;
#X obj 452 44 *~ 0.05;
#X obj 518 40 *~ 0.05;
#X obj 580 41 *~ 0.05;
#X obj 642 43 *~ 0.05;
#X obj 704 44 *~ 0.05;
#X obj 765 42 *~ 0.05;
#X obj 827 43 *~ 0.05;
#X obj 889 45 *~ 0.05;
#X obj 951 46 *~ 0.05;
#X obj 1013 44 *~ 0.05;
#X obj 1075 45 *~ 0.05;
#X obj 1137 47 *~ 0.05;
#X obj 1199 48 *~ 0.05;
#X obj 171 194 signal_splitter;
#X obj 204 100 openpanel;
#X msg 171 145 open \$1;
#X obj 204 81 bng 15 250 50 0 empty empty empty 17 7 0 10 -262144 -1
-1;
#X msg 228 145 start;
#X obj 171 123 symbol;
#X obj 228 123 del 5;
#X obj 171 81 bng 15 250 50 0 empty empty empty 17 7 0 10 -262144 -1
-1;
#X obj 171 169 readsf~ 1;
#X connect 0 0 1 0;
#X connect 0 1 1 1;
#X connect 2 0 22 0;
#X connect 3 0 23 0;
#X connect 4 0 24 0;
#X connect 5 0 25 0;
#X connect 6 0 26 0;
#X connect 7 0 27 0;
#X connect 8 0 28 0;
#X connect 9 0 29 0;
#X connect 10 0 30 0;
#X connect 11 0 31 0;
#X connect 12 0 32 0;
#X connect 13 0 33 0;
#X connect 14 0 34 0;
#X connect 15 0 35 0;
#X connect 16 0 36 0;
#X connect 17 0 37 0;
#X connect 18 0 38 0;
#X connect 19 0 39 0;
#X connect 20 0 40 0;
#X connect 21 0 41 0;
#X connect 42 0 0 0;
#X connect 42 1 0 1;
#X connect 42 2 0 2;
#X connect 42 3 0 3;
#X connect 42 4 0 4;
#X connect 42 5 0 5;
#X connect 42 6 0 6;
#X connect 42 7 0 7;
#X connect 42 8 0 8;
#X connect 42 9 0 9;
#X connect 42 10 0 10;
#X connect 42 11 0 11;
#X connect 42 12 0 12;
#X connect 42 13 0 13;
#X connect 42 14 0 14;
#X connect 42 15 0 15;
#X connect 42 16 0 16;
#X connect 42 17 0 17;
#X connect 42 18 0 18;
#X connect 42 19 0 19;
#X connect 43 0 47 1;
#X connect 44 0 50 0;
#X connect 45 0 43 0;
#X connect 46 0 50 0;
#X connect 47 0 44 0;
#X connect 48 0 46 0;
#X connect 49 0 47 0;
#X connect 49 0 48 0;
#X connect 50 0 42 0;
#X connect 50 1 49 0;
